<svg xmlns="http://www.w3.org/2000/svg" width="47" height="47" viewBox="0 0 47 47">
  <defs>
    <style>
      .cls-1 {
        fill: #9e9e9e;
        fill-rule: evenodd;
      }
    </style>
  </defs>
  <path id="icon" class="cls-1" d="M17.356,15H20V26.059a5.516,5.516,0,0,1-.374,2.088,4.326,4.326,0,0,1-1.04,1.549,4.513,4.513,0,0,1-1.583.957,5.836,5.836,0,0,1-2,.331A6.871,6.871,0,0,1,13,30.7a4.214,4.214,0,0,1-1.583-.866,3.983,3.983,0,0,1-1.036-1.472,5.364,5.364,0,0,1-.373-2.089h2.649a3.421,3.421,0,0,0,.174,1.163,1.982,1.982,0,0,0,.484.78,1.909,1.909,0,0,0,.741.439,3.11,3.11,0,0,0,.957.14,2.429,2.429,0,0,0,.946-0.179,2.023,2.023,0,0,0,.742-0.524,2.472,2.472,0,0,0,.484-0.856,3.677,3.677,0,0,0,.173-1.179V15ZM32.212,26.767a2.3,2.3,0,0,0-.143-0.839,1.659,1.659,0,0,0-.523-0.678,4.42,4.42,0,0,0-1.049-.594,16.722,16.722,0,0,0-1.715-.592,16.659,16.659,0,0,1-2.118-.757,7.326,7.326,0,0,1-1.67-.994,4.271,4.271,0,0,1-1.1-1.3,3.5,3.5,0,0,1-.4-1.687,3.669,3.669,0,0,1,.414-1.73,4.119,4.119,0,0,1,1.163-1.367,5.611,5.611,0,0,1,1.8-.9,7.9,7.9,0,0,1,2.316-.32,7.342,7.342,0,0,1,2.438.38,5.52,5.52,0,0,1,1.825,1.03,4.5,4.5,0,0,1,1.142,1.512,4.318,4.318,0,0,1,.4,1.832H32.212a2.914,2.914,0,0,0-.181-1.042,2.175,2.175,0,0,0-.558-0.822,2.587,2.587,0,0,0-.948-0.54,4.277,4.277,0,0,0-1.357-.192,4.528,4.528,0,0,0-1.28.161,2.6,2.6,0,0,0-.9.449,1.777,1.777,0,0,0-.53.684,2.138,2.138,0,0,0-.17.854,1.7,1.7,0,0,0,.844,1.441,9.092,9.092,0,0,0,2.575,1.068,15.294,15.294,0,0,1,2.349.854,6.806,6.806,0,0,1,1.649,1.063,3.846,3.846,0,0,1,.976,1.335A4.183,4.183,0,0,1,35,26.746a3.712,3.712,0,0,1-1.55,3.1,5.449,5.449,0,0,1-1.8.845,8.811,8.811,0,0,1-2.36.293,8.667,8.667,0,0,1-2.283-.3,6.525,6.525,0,0,1-2.018-.919,4.826,4.826,0,0,1-1.44-1.532A4.148,4.148,0,0,1,23,26.072h2.791a2.763,2.763,0,0,0,.27,1.266,2.382,2.382,0,0,0,.74.864,3.125,3.125,0,0,0,1.108.491,5.769,5.769,0,0,0,1.379.155,3.529,3.529,0,0,0,2.19-.571A1.823,1.823,0,0,0,32.212,26.767ZM23.5,47A23.5,23.5,0,1,1,47,23.5,23.527,23.527,0,0,1,23.5,47Zm0-46A22.5,22.5,0,1,0,46,23.5,22.526,22.526,0,0,0,23.5,1Z"/>
</svg>
