<svg xmlns="http://www.w3.org/2000/svg" width="47" height="47" viewBox="0 0 47 47">
  <defs>
    <style>
      .cls-1 {
        fill: #9e9e9e;
        fill-rule: evenodd;
      }
    </style>
  </defs>
  <path class="cls-1" d="M14.5,16.99h-1a2.5,2.5,0,0,1-2.5-2.5v-1a2.5,2.5,0,0,1,2.5-2.5h1a2.5,2.5,0,0,1,2.5,2.5v1A2.5,2.5,0,0,1,14.5,16.99Zm-1-5a1.5,1.5,0,0,0-1.5,1.5v1a1.5,1.5,0,0,0,1.5,1.5h1a1.5,1.5,0,0,0,1.5-1.5v-1a1.5,1.5,0,0,0-1.5-1.5h-1Zm22.51,3h-16v-2h16v2ZM14.5,27h-1A2.5,2.5,0,0,1,11,24.5v-1A2.5,2.5,0,0,1,13.5,21h1A2.5,2.5,0,0,1,17,23.5v1A2.5,2.5,0,0,1,14.5,27Zm-1-5A1.5,1.5,0,0,0,12,23.5v1A1.5,1.5,0,0,0,13.5,26h1A1.5,1.5,0,0,0,16,24.5v-1A1.5,1.5,0,0,0,14.5,22h-1Zm22.51,3h-16V23h16v2ZM14.5,37h-1A2.5,2.5,0,0,1,11,34.5v-1A2.5,2.5,0,0,1,13.5,31h1A2.5,2.5,0,0,1,17,33.5v1A2.5,2.5,0,0,1,14.5,37Zm-1-5A1.5,1.5,0,0,0,12,33.5v1A1.5,1.5,0,0,0,13.5,36h1A1.5,1.5,0,0,0,16,34.5v-1A1.5,1.5,0,0,0,14.5,32h-1Zm22.51,3h-16V33h16v2ZM23.5,47A23.5,23.5,0,1,1,47,23.5,23.527,23.527,0,0,1,23.5,47Zm0-46A22.5,22.5,0,1,0,46,23.5,22.526,22.526,0,0,0,23.5,1Z"/>
</svg>
