<?xml version="1.0" encoding="utf-8"?>
<!-- Generator: Adobe Illustrator 19.2.1, SVG Export Plug-In . SVG Version: 6.00 Build 0)  -->
<svg version="1.1" id="Layer_1" xmlns="http://www.w3.org/2000/svg" xmlns:xlink="http://www.w3.org/1999/xlink" x="0px" y="0px"
	 viewBox="0 0 47 47" style="enable-background:new 0 0 47 47;" xml:space="preserve">
<style type="text/css">
	.st0{fill:#9D9D9D;}
	.st1{fill-rule:evenodd;clip-rule:evenodd;fill:#9D9D9D;}
</style>
<path class="st0" d="M33.8,8.3L13.3,10c0,0,0,0,0,0h-0.1c-0.6,0-1.2,0.5-1.2,1.1v25.7c0,0.6,0.5,1.1,1.2,1.1h0.1c0,0,0,0,0,0l0.1,0
	h18.9c0.6,0,1.2-0.5,1.2-1.1v-0.5l0.4,0c0.6,0,1.1-0.5,1.1-1.1V9.4C35,8.8,34.5,8.3,33.8,8.3z M31.9,36.9c0,0.1-0.1,0.1-0.1,0.1
	H13.2c-0.1,0-0.1-0.1-0.1-0.1V11.2c0-0.1,0.1-0.1,0.1-0.1h18.6c0.1,0,0.1,0.1,0.1,0.1V36.9z M34,35.2c0,0.1-0.1,0.1-0.1,0.1h0l0,0
	l-0.8,0V11.2c0-0.6-0.5-1.1-1.2-1.1h-5.9l8-0.7c0.1,0,0.1,0.1,0.1,0.1V35.2z"/>
<path class="st0" d="M27.9,31H17.1c-0.6,0-1.1,0.5-1.1,1.2v0.6c0,0.7,0.5,1.2,1.1,1.2h10.7c0.6,0,1.1-0.5,1.1-1.2v-0.6
	C29,31.5,28.5,31,27.9,31z M28,32.8c0,0.1-0.1,0.2-0.1,0.2H17.1c-0.1,0-0.1-0.1-0.1-0.2v-0.6c0-0.1,0.1-0.2,0.1-0.2h10.7
	c0.1,0,0.1,0.1,0.1,0.2V32.8z"/>
<path class="st1" d="M22.5,27c-3.6,0-6.5-2.9-6.5-6.5c0-3.6,2.9-6.5,6.5-6.5c3.6,0,6.5,2.9,6.5,6.5C29,24.1,26.1,27,22.5,27z
	 M22.5,15c-3,0-5.5,2.5-5.5,5.5c0,3,2.5,5.5,5.5,5.5c3,0,5.5-2.5,5.5-5.5C28,17.5,25.5,15,22.5,15z"/>
<path class="st0" d="M23.5,47C10.5,47,0,36.5,0,23.5C0,10.5,10.5,0,23.5,0C36.5,0,47,10.5,47,23.5C47,36.5,36.5,47,23.5,47z M23.5,1
	C11.1,1,1,11.1,1,23.5S11.1,46,23.5,46C35.9,46,46,35.9,46,23.5S35.9,1,23.5,1z"/>
</svg>
